<?xml version="1.0" encoding="UTF-8" standalone="no"?>
<!-- Created with Inkscape (http://www.inkscape.org/) -->

<svg
   version="1.1"
   id="svg2"
   width="1822.291"
   height="549.90216"
   viewBox="0 0 1822.291 549.90216"
   xmlns="http://www.w3.org/2000/svg"
   xmlns:svg="http://www.w3.org/2000/svg">
  <defs
     id="defs6" />
  <g
     id="g8"
     transform="translate(-49.372726,-20.764507)">
    <path
       style="display:inline;fill:#b3b3b3;stroke-width:1.33333"
       d="M 67.363981,533.39476 C 57.135116,512.8952 49.043685,495.89413 49.383023,495.61461 c 0.770084,-0.63436 83.080967,4.43928 83.828747,5.16719 0.67952,0.66148 -45.316567,69.88487 -46.435622,69.88487 -0.447827,0 -9.183301,-16.77236 -19.412167,-37.27191 z m 39.999339,0.39853 c 10.51964,-15.99462 18.85831,-29.34944 18.53038,-29.67737 -0.46814,-0.46813 -70.153897,-5.28175 -70.69848,-4.88357 -0.07596,0.0556 7.047288,14.67773 15.829447,32.49376 8.782158,17.81602 16.247566,32.11277 16.589794,31.77054 0.342228,-0.34222 9.229214,-13.70874 19.748859,-29.70336 z m 446.89781,10.24579 c -10.06822,-3.93397 -17.54213,-10.91747 -22.52808,-21.04989 -3.90721,-7.94019 -4.39013,-10.1378 -4.31402,-19.63179 0.0659,-8.22372 0.77561,-12.11719 3.07546,-16.87223 4.33068,-8.95389 10.87123,-16.01025 19.02711,-20.52764 C 556.10719,462.30988 557.71071,462 570,462 c 12.28929,0 13.89281,0.30988 20.4784,3.95753 8.15588,4.51739 14.69643,11.57375 19.02711,20.52764 2.29985,4.75504 3.00954,8.64851 3.07546,16.87223 0.0761,9.49399 -0.40681,11.6916 -4.31402,19.63179 -7.58188,15.40785 -21.19974,23.73598 -38.61459,23.61512 -5.48835,-0.0381 -11.4788,-1.03651 -15.39123,-2.56523 z m 33.35807,-5.54659 c 30.10165,-14.33609 28.30089,-57.74477 -2.95253,-71.17321 -3.28402,-1.41101 -8.91964,-2.31381 -14.66667,-2.34951 -21.25132,-0.132 -37.52477,15.04187 -38.99865,36.36356 -1.06899,15.46448 6.31474,29.27168 19.48793,36.44144 12.91459,7.02899 23.45047,7.23266 37.12992,0.71772 z m 1106.7087,6.72662 c -13.5182,-3.186 -29.4538,-15.49228 -36.264,-28.00494 -24.1436,-44.35964 13.9596,-96.39641 63.008,-86.04884 36.8293,7.76976 56.7621,47.28982 41.1032,81.49366 -4.6634,10.18592 -9.5783,16.22601 -18.6358,22.9015 -13.1474,9.68994 -32.7522,13.53774 -49.2114,9.65862 z m 36.7866,-6.92048 c 10.7872,-4.97588 17.7802,-10.86327 23.6016,-19.8702 18.2798,-28.28232 8.0564,-64.34542 -22.5258,-79.46068 C 1722.8252,434.33907 1721.3155,434 1710.0696,434 c -14.4021,0 -22.5824,2.48044 -33.1597,10.05463 -8.7196,6.24401 -17.3691,18.52782 -20.409,28.98462 -3.1988,11.00372 -2.0404,28.07271 2.557,37.67711 6.5925,13.77251 17.9688,24.2256 32.0472,29.44681 10.4393,3.87154 29.4998,2.98326 40.0094,-1.86454 z M 876.66667,475.15931 C 850.02795,471.03085 825.20675,453.00119 813.51649,429.2882 807.84773,417.78945 804,402.44345 804,391.33333 c 0,-11.11012 3.84773,-26.45612 9.51649,-37.95486 10.99668,-22.30614 33.5614,-39.61814 58.48351,-44.86946 20.35015,-4.28797 45.77529,0.56167 63.04641,12.02559 24.69043,16.38857 39.64643,45.91199 37.91971,74.85423 -2.16233,36.24369 -26.42561,66.96469 -60.96612,77.19236 -7.44707,2.20512 -28.04325,3.70793 -35.33333,2.57812 z m 31.87198,-5.79323 c 14.89447,-3.80937 25.25982,-9.81493 36.90504,-21.38237 15.89851,-15.79228 23.88964,-34.74198 23.88964,-56.65038 0,-52.14572 -49.51429,-90.92586 -99.84364,-78.19864 -35.8527,9.0664 -61.44338,41.63551 -61.44338,78.19864 0,52.0925 50.0279,90.93938 100.49234,78.03275 z m 413.06625,-76.91152 c -12.4773,-18.21668 -22.4724,-33.34157 -22.2113,-33.61089 0.6141,-0.63358 79.7504,-6.81072 80.2937,-6.26748 0.5258,0.52578 -32.7894,70.38001 -34.2806,71.87837 -0.6136,0.61668 -11.3246,-13.78332 -23.8018,-32 z m 40.2814,-10.19901 12.7282,-26.41112 -5.6406,0.7214 c -3.1023,0.39677 -18.5406,1.70148 -34.3072,2.89933 -15.7667,1.19785 -28.789,2.28055 -28.9385,2.40597 -0.1495,0.12547 8.5234,13.07783 19.2731,28.7831 l 19.545,28.55504 2.3057,-5.27131 c 1.2683,-2.89921 8.0336,-17.15629 15.0343,-31.68241 z m 473.4732,13.04278 c -19.0523,-9.79458 -34.8254,-18.36257 -35.0511,-19.03998 -0.4128,-1.23822 66.0567,-45.05503 66.9013,-44.10154 0.2484,0.28043 1.1444,16.10986 1.9912,35.17652 0.8468,19.06667 1.8598,37.21667 2.2511,40.33334 0.3912,3.11666 0.2247,5.61566 -0.3703,5.55333 -0.5949,-0.0624 -16.67,-8.12709 -35.7222,-17.92167 z m 31.8128,3.035 c -0.2864,-4.58333 -1.1138,-19.67988 -1.8388,-33.54788 -0.725,-13.868 -1.5434,-25.43973 -1.8186,-25.71497 -0.2752,-0.27524 -13.1833,7.73663 -28.6848,17.80416 -15.5013,10.06753 -27.7157,18.77303 -27.1433,19.34553 1.222,1.22199 57.9132,30.36748 59.1596,30.41454 0.4656,0.0176 0.6123,-3.71804 0.3259,-8.30138 z M 134.72224,254.04613 C 103.23921,248.07696 76.022417,221.71999 68.586805,190 c -2.858258,-12.1932 -1.995013,-32.5504 1.894087,-44.66667 6.011043,-18.72706 20.674451,-37.05506 37.630818,-47.035297 45.48162,-26.769713 105.36077,-4.675449 122.6472,45.254477 10.43753,30.14766 2.50125,64.64765 -20.0617,87.2106 -19.55109,19.55109 -48.64028,28.46566 -75.97497,23.28302 z m 34.93663,-4.62554 c 35.3737,-9.04708 58.88952,-36.9369 61.78542,-73.27768 C 233.8498,145.95617 215.25623,113.22451 188,99.664673 175.02188,93.208123 164.63885,90.662011 151.38653,90.686375 116.96107,90.749665 87.604073,111.15318 75.054799,143.738 c -4.61818,11.99133 -5.754391,34.07939 -2.414014,46.92867 5.715351,21.98498 22.785015,43.1772 42.325665,52.54788 18.35809,8.8036 36.49103,10.86116 54.69242,6.20604 z m 351.23914,-46.41938 c -15.27276,-0.2141 -27.57276,-0.8823 -27.33333,-1.48489 2.50325,-6.3002 60.39861,-102.747229 61.19131,-101.937693 1.89334,1.933573 58.57734,101.671683 58.57734,103.069533 0,1.30977 -19.00752,1.38237 -92.43532,0.35305 z m 84.83046,-7.33454 c -1.39422,-2.38334 -13.5798,-23.68302 -27.0791,-47.33263 -14.78537,-25.90271 -24.91741,-42.3369 -25.48292,-41.33333 -0.5163,0.91628 -12.66848,21.70804 -27.00481,46.20393 -14.33635,24.49588 -25.75217,45.04588 -25.36851,45.66667 C 501.1768,199.49208 525.51457,200 554.87705,200 h 53.38635 z m 1196.93823,-6.4064 c -35.7714,-4.79283 -59.1224,-40.01463 -49.9307,-75.31347 2.5471,-9.78118 7.2089,-17.910085 15.1249,-26.372889 28.2422,-30.193215 79.2412,-21.950679 97.5082,15.759419 20.9437,43.23588 -14.884,92.33388 -62.7024,85.92694 z m 21.3396,-4.68596 c 22.141,-5.03587 39.0785,-23.38403 43.0638,-46.65064 4.0738,-23.78224 -9.485,-49.036121 -31.9834,-59.570671 -11.6018,-5.432348 -29.1214,-6.734066 -40.6154,-3.017735 -29.9337,9.678468 -46.4157,41.087496 -37.3036,71.087606 6.9136,22.76154 28.8562,39.2889 53.2358,40.0977 2.4218,0.0804 8.5432,-0.79546 13.6028,-1.94626 z m -459.175,-52.24098 c 0.4347,-4.21666 2.9755,-31.06666 5.6462,-59.666663 2.6708,-28.6 5.381,-51.95593 6.023,-51.902067 2.3379,0.196155 96.7631,67.938341 96.3876,69.150012 -0.355,1.145708 -105.638,50.007788 -107.8677,50.061708 -0.5387,0.0133 -0.6239,-3.42632 -0.1891,-7.64299 z M 1422,110.08813 c 23.4667,-10.756078 43.0835,-19.976118 43.5928,-20.488983 0.5093,-0.512864 -18.6617,-14.861455 -42.6023,-31.885759 -23.9406,-17.024303 -43.7582,-30.723477 -44.039,-30.442609 -0.281,0.280868 -2.5232,22.009842 -4.9831,48.286612 -2.4599,26.276769 -4.7291,50.270339 -5.0427,53.319049 l -0.5702,5.54311 5.4889,-2.38746 c 3.0189,-1.31311 24.6889,-11.18789 48.1556,-21.94396 z"
       id="path246" />
  </g>
</svg>
